<svg width="26" height="27" viewBox="0 0 26 27" fill="none" xmlns="http://www.w3.org/2000/svg">
<path d="M25.4652 8.27821C25.8156 7.76082 26 7.16678 26 6.53442C26 4.84812 24.6908 3.48758 23.0681 3.48758C22.4596 3.48758 21.8879 3.6792 21.3901 4.04329C20.8922 3.6792 20.3206 3.48758 19.7121 3.48758C19.1035 3.48758 18.5319 3.6792 18.034 4.04329C17.5546 3.69837 16.9645 3.48758 16.356 3.48758C15.7475 3.48758 15.1759 3.6792 14.678 4.04329C14.1801 3.6792 13.5901 3.48758 13 3.48758C12.373 3.48758 11.8014 3.69837 11.322 4.04329C10.8241 3.6792 10.2525 3.48758 9.64397 3.48758C9.03546 3.48758 8.46383 3.6792 7.96596 4.04329V1.49468L5.56879 0H4.60993V4.04329C3.83546 4.61817 3.35603 5.53797 3.35603 6.53442C3.35603 8.22072 4.66525 9.58126 6.28794 9.58126C6.89645 9.58126 7.46809 9.38964 7.96596 9.02555C8.46383 9.38964 9.03546 9.58126 9.64397 9.58126C10.2525 9.58126 10.8426 9.38964 11.322 9.02555C11.8014 9.38964 12.3915 9.58126 13 9.58126C13.6085 9.58126 14.1801 9.38964 14.678 9.02555C15.1574 9.38964 15.7475 9.58126 16.356 9.58126C16.9645 9.58126 17.5362 9.38964 18.034 9.02555C18.5135 9.38964 19.0851 9.58126 19.6936 9.58126C19.8411 9.58126 20.0071 9.5621 20.1546 9.54294C20.1362 9.69624 20.1177 9.84954 20.1177 10.022C20.1177 10.1945 20.1362 10.3478 20.1546 10.5011C19.417 10.3861 18.6426 10.5586 18.0156 11.0185C17.5546 10.6544 16.9645 10.4627 16.356 10.4627C15.7475 10.4627 15.1759 10.6544 14.678 11.0185C14.1801 10.6544 13.5901 10.4627 13 10.4627C12.3915 10.4627 11.8199 10.6544 11.322 11.0185C10.8426 10.6544 10.2709 10.4627 9.64397 10.4627C9.03546 10.4627 8.44539 10.6544 7.96596 11.0185C7.46809 10.6544 6.89645 10.4627 6.28794 10.4627C5.67943 10.4627 5.1078 10.6544 4.60993 11.0185C4.11206 10.6544 3.54043 10.4627 2.93191 10.4627C1.30922 10.4627 0 11.8233 0 13.5096C0 14.1611 0.184397 14.7551 0.534752 15.2534C0.184397 15.7516 0 16.3648 0 16.9972C0 17.6295 0.184397 18.2236 0.534752 18.7409C0.202837 19.22 0 19.8332 0 20.4656C0 22.1519 1.30922 23.5124 2.93191 23.5124C3.54043 23.5124 4.1305 23.3016 4.60993 22.9567C5.1078 23.3208 5.67943 23.5124 6.28794 23.5124C6.89645 23.5124 7.46809 23.3208 7.96596 22.9567C8.46383 23.3208 9.03546 23.5124 9.64397 23.5124C10.2525 23.5124 10.8426 23.3016 11.322 22.9567C11.8199 23.3208 12.3915 23.5124 13 23.5124C13.6085 23.5124 14.1801 23.3208 14.678 22.9567C15.1574 23.3016 15.7475 23.5124 16.356 23.5124C16.9645 23.5124 17.5362 23.3208 18.034 22.9567V25.5053L20.4312 27H21.3901V22.9567C22.1645 22.3818 22.644 21.462 22.644 20.4656C22.644 18.7793 21.3348 17.4187 19.7121 17.4187C19.1035 17.4187 18.5319 17.6104 18.034 17.9744C17.5362 17.6104 16.9461 17.4187 16.356 17.4187C15.7475 17.4187 15.1759 17.6104 14.678 17.9744C14.1986 17.6295 13.627 17.4187 13 17.4187C12.3915 17.4187 11.8199 17.6104 11.322 17.9744C10.8241 17.6104 10.2525 17.4187 9.64397 17.4187C9.03546 17.4187 8.46383 17.6104 7.96596 17.9744C7.46809 17.6104 6.89645 17.4187 6.28794 17.4187C6.14043 17.4187 5.97447 17.4379 5.82695 17.4571C5.84539 17.3038 5.86383 17.1505 5.86383 16.978C5.86383 16.8247 5.84539 16.6522 5.82695 16.4989C5.97447 16.5181 6.12199 16.5373 6.28794 16.5373C6.91489 16.5373 7.48653 16.3265 7.96596 15.9815C8.44539 16.3648 9.03546 16.5564 9.64397 16.5564C10.2525 16.5564 10.8241 16.3648 11.322 16.0007C11.8014 16.3456 12.3915 16.5564 13 16.5564C13.6085 16.5564 14.1801 16.3648 14.678 16.0007C15.1759 16.3648 15.7475 16.5564 16.356 16.5564C16.9645 16.5564 17.5362 16.3648 18.034 16.0007C18.5135 16.3456 19.1035 16.5564 19.7121 16.5564C20.339 16.5564 20.9106 16.3456 21.3901 16.0007C21.8879 16.3648 22.4596 16.5564 23.0681 16.5564C24.6908 16.5564 26 15.1959 26 13.5096C26 12.8772 25.8156 12.2832 25.4652 11.7658C25.8156 11.2484 26 10.6544 26 10.022C25.9816 9.37048 25.7972 8.77644 25.4652 8.27821ZM24.617 12.0532C24.9674 12.4556 25.1518 12.973 25.1518 13.5096C25.1518 14.7168 24.2113 15.6941 23.0496 15.6941C22.6809 15.6941 22.3121 15.5791 21.9986 15.4067C22.3858 14.8893 22.6255 14.2378 22.6255 13.5287H21.7957C21.7957 14.736 20.8553 15.7133 19.6936 15.7133C18.8085 15.7133 18.0156 15.1384 17.7206 14.2569L16.9277 14.5252C17.0383 14.851 17.1858 15.1384 17.3887 15.3875C16.6326 15.8282 15.6184 15.7516 14.9546 15.1192L14.678 14.8701L14.383 15.1192C14.0142 15.4833 13.5163 15.6749 13 15.6749C12.1149 15.6749 11.3404 15.1001 11.0269 14.2378L10.234 14.5444C10.3447 14.851 10.4922 15.1384 10.695 15.3875C10.0496 15.7516 9.2383 15.7516 8.61135 15.3875C8.98014 14.8701 9.21986 14.2186 9.21986 13.5096H8.39007C8.39007 14.7168 7.44965 15.6941 6.28794 15.6941C6.01135 15.6941 5.75319 15.6366 5.51347 15.5408C5.27376 15.0809 4.9234 14.6977 4.49929 14.4102L4.0383 15.1384C4.64681 15.5408 5.0156 16.2307 5.0156 16.978C5.0156 17.2654 4.96028 17.5337 4.86809 17.7828C3.96454 18.3002 3.33759 19.2967 3.33759 20.4464H4.16738C4.16738 19.2392 5.1078 18.2619 6.2695 18.2619C6.78582 18.2619 7.28369 18.4535 7.67092 18.8176L7.94752 19.0859L8.22411 18.8176C8.90638 18.2427 9.92057 18.1469 10.695 18.5877C10.2894 19.1242 10.0681 19.7757 10.0681 20.4656H10.8979C10.8979 19.8524 11.156 19.2583 11.5986 18.8368C11.9858 18.4918 12.4837 18.3002 13 18.3002C14.1617 18.3002 15.1021 19.2775 15.1021 20.4847H15.9319C15.9319 19.7757 15.6922 19.1242 15.305 18.6068C16.061 18.1661 17.0752 18.2427 17.7574 18.8559L18.034 19.1242L18.3106 18.8559C18.6979 18.4918 19.1957 18.3002 19.7121 18.3002C20.8738 18.3002 21.8142 19.2775 21.8142 20.4847C21.8142 21.2512 21.4085 21.9794 20.7631 22.3627L20.5603 22.4968V26.0802L18.8823 25.0263V22.4968L18.6794 22.3627C18.5504 22.286 18.4397 22.1902 18.3291 22.0944L18.0525 21.8261L17.7759 22.0944C17.3887 22.4585 16.8908 22.6501 16.3745 22.6501C15.5078 22.6501 14.7149 22.0944 14.4199 21.2512L13.627 21.5578C13.7376 21.8453 13.8851 22.1136 14.0695 22.3627C13.4241 22.7268 12.6128 22.7268 11.9858 22.3627C12.1887 22.0944 12.3362 21.807 12.4468 21.4812L11.617 21.1938C11.322 22.0752 10.5291 22.6501 9.64397 22.6501C9.12766 22.6501 8.62979 22.4585 8.24255 22.0944L7.96596 21.8261L7.68936 22.0944C7.02553 22.7076 6.01135 22.8034 5.25532 22.3435C5.45816 22.0752 5.60567 21.7878 5.71631 21.462L4.9234 21.1746C4.62837 22.0561 3.83546 22.6309 2.95035 22.6309C1.78865 22.6309 0.848227 21.6537 0.848227 20.4464C0.848227 19.2392 1.78865 18.2619 2.95035 18.2619V17.4187C2.26809 17.4187 1.64113 17.6679 1.14326 18.0703C0.958865 17.7445 0.866667 17.3612 0.866667 16.978C0.866667 16.5947 0.958865 16.2115 1.14326 15.8857C1.5305 16.1923 1.97305 16.4031 2.48936 16.4989L2.61844 15.6366C1.58582 15.4833 0.829787 14.5827 0.829787 13.5096C0.829787 12.3023 1.77021 11.3251 2.93191 11.3251C3.44823 11.3251 3.9461 11.5167 4.33333 11.8808L4.60993 12.149L4.88653 11.8808C5.55035 11.2676 6.56454 11.1718 7.32057 11.6317C7.13617 11.8808 6.98865 12.1682 6.87801 12.494L7.67092 12.7814C7.96596 11.9191 8.75887 11.3251 9.64397 11.3251C10.8057 11.3251 11.7461 12.3023 11.7461 13.5096H12.5759C12.5759 12.8006 12.3362 12.149 11.9489 11.6317C12.705 11.1909 13.7191 11.2676 14.383 11.8808L14.6596 12.149L14.9546 11.8808C15.3418 11.5167 15.8397 11.3251 16.356 11.3251C17.4993 11.3251 18.4397 12.3023 18.4397 13.5096H19.2695C19.2695 12.8006 19.0298 12.149 18.6426 11.6317C19.1957 11.3059 19.878 11.2484 20.4865 11.4975C20.5972 11.6891 20.7262 11.8808 20.8738 12.0532L21.5007 11.4784C21.1504 11.0759 20.966 10.5586 20.966 10.022C20.966 9.73456 21.0213 9.46629 21.1135 9.19801C21.2979 9.08304 21.4823 8.9489 21.6482 8.7956L21.095 8.14407C20.7078 8.50816 20.2099 8.69979 19.6936 8.69979C18.8085 8.69979 18.0156 8.12491 17.7206 7.24343L16.9277 7.55004C17.0383 7.8758 17.1858 8.16324 17.3887 8.41235C16.6326 8.85309 15.6184 8.77644 14.9546 8.16324L14.678 7.89496L14.383 8.16324C13.7191 8.77644 12.705 8.85309 11.9489 8.41235C12.1333 8.16324 12.2993 7.8758 12.4099 7.55004L11.617 7.2626C11.322 8.12491 10.5291 8.71895 9.64397 8.71895C9.12766 8.71895 8.62979 8.52732 8.24255 8.16324L7.96596 7.89496L7.68936 8.16324C7.30213 8.50816 6.80426 8.71895 6.28794 8.71895C5.12624 8.71895 4.18582 7.74166 4.18582 6.53442C4.18582 5.76792 4.59149 5.03974 5.23688 4.65649L5.43972 4.52236V0.938964L7.11773 1.9929V4.52236L7.32057 4.65649C7.44965 4.73314 7.56028 4.82896 7.67092 4.92477L7.96596 5.17388L8.24255 4.90561C8.90638 4.29241 9.92057 4.21576 10.695 4.65649C10.2894 5.17388 10.0681 5.82541 10.0681 6.53442H10.8979C10.8979 5.32718 11.8383 4.34989 13 4.34989C13.5163 4.34989 14.0142 4.54152 14.4014 4.90561L14.678 5.17388L14.9546 4.90561C15.3418 4.54152 15.8397 4.34989 16.356 4.34989C17.4993 4.34989 18.4397 5.32718 18.4397 6.53442H19.2695C19.2695 5.82541 19.0298 5.17388 18.6426 4.65649C19.3986 4.21576 20.4128 4.29241 21.095 4.90561L21.3716 5.17388L21.6482 4.90561C22.0355 4.54152 22.5333 4.34989 23.0496 4.34989C24.2113 4.34989 25.1518 5.32718 25.1518 6.53442C25.1518 6.91767 25.0411 7.30092 24.8752 7.62669C24.3773 7.22427 23.7504 6.97516 23.0681 6.97516V7.83747C24.2298 7.83747 25.1702 8.81476 25.1702 10.022C25.1702 10.5586 24.9858 11.0759 24.6355 11.4784L24.3773 11.7658L24.617 12.0532Z" fill="#961914"/>
</svg>
