<svg width="30" height="29" viewBox="0 0 30 29" fill="none" xmlns="http://www.w3.org/2000/svg">
<g clip-path="url(#clip0)">
<path d="M29.1028 15.8418C28.8351 15.241 28.5101 14.6001 28.1468 13.9593C27.1717 12.2369 26.426 10.6347 25.8332 9.05249C25.7759 8.89226 25.6994 8.73204 25.642 8.57182C25.5273 8.33149 25.2596 8.25138 25.0493 8.35152C24.8198 8.47168 24.7434 8.75207 24.839 8.97237C24.8963 9.11257 24.9537 9.23273 25.011 9.37293C25.6038 11.0152 26.3877 12.6575 27.382 14.4199C27.7453 15.0407 28.0512 15.6616 28.2998 16.2224C28.8543 17.4441 29.1219 18.4655 29.1219 19.2465C29.1219 24.0932 25.2022 28.0587 20.3839 28.0587C18.8734 28.0587 17.4011 27.6581 16.0818 26.9171C16.8466 26.2162 17.5158 25.4151 18.0894 24.5138C19.0837 22.9116 19.7338 21.049 19.9632 19.0863C20.3074 15.982 19.5617 13.1581 18.0321 11.8764C17.0761 11.0753 16.1009 10.855 15.164 10.9351C15.3743 10.4144 15.5847 9.89365 15.7759 9.37293C16.12 8.43163 16.7319 7.63052 17.5349 7.04972C18.3762 6.44889 19.3514 6.12845 20.3839 6.12845C20.5177 6.12845 20.6325 6.12845 20.7472 6.14848C21.9326 6.22859 23.0416 6.74931 23.8829 7.6105C24.055 7.79075 24.3418 7.79075 24.5139 7.6105C24.686 7.43025 24.686 7.12983 24.5139 6.94959C23.5388 5.9482 22.2386 5.34738 20.8619 5.24724C20.9575 3.96547 21.512 2.58356 22.8313 2.08287C23.0608 2.00276 23.1755 1.72238 23.099 1.48204C23.0225 1.24171 22.7548 1.12155 22.5254 1.20166C20.8045 1.86257 20.078 3.64503 19.9824 5.24724C18.8925 5.30732 17.8982 5.66782 17.0378 6.28867C16.0818 6.96961 15.3552 7.93094 14.9346 9.05249C14.686 9.73343 14.3801 10.4544 14.055 11.1754C13.1372 11.4358 12.2959 11.9365 11.5885 12.337C11.1678 12.5773 10.7663 12.8177 10.4413 12.9378C10.3839 12.1568 10.1927 11.3557 9.925 10.6146C12.0665 10.3943 14.055 9.19268 15.2978 7.33011C16.6745 5.30732 17.0378 2.6837 16.2921 0.320442C16.2348 0.120166 16.0627 0 15.8715 0C13.5005 0.0600829 11.2634 1.3018 9.88676 3.32459C8.91162 4.7866 8.4336 6.54903 8.52921 8.29144C8.10856 7.85083 7.64966 7.55041 7.19077 7.43025C6.94221 7.35014 6.71276 7.51036 6.63628 7.75069C6.57892 7.99102 6.71276 8.25138 6.96133 8.33149C8.28064 8.71202 9.35139 10.9952 9.54259 12.9178C9.38963 12.8577 9.19842 12.7576 8.94986 12.6174C8.79689 12.5373 8.62481 12.4372 8.45272 12.337C7.42022 11.7362 6.15827 11.0152 4.80072 10.9351C3.78733 10.875 2.85043 11.1954 2.02825 11.8964C0.900144 12.8177 0.173566 14.6202 0.0397233 16.8032C-0.189722 20.2079 0.976626 23.6927 3.17548 26.136C3.34756 26.3163 3.63437 26.3363 3.80645 26.1561C3.97854 25.9758 3.99766 25.6754 3.82557 25.4952C1.79881 23.232 0.708939 20.0076 0.919264 16.8833C1.05311 14.9606 1.66496 13.3785 2.58274 12.6174C3.25196 12.0767 3.95942 11.8163 4.76248 11.8764C5.9097 11.9365 7.03781 12.5773 8.03207 13.1581C8.22328 13.2583 8.39536 13.3584 8.56745 13.4586C8.85425 13.6188 9.0837 13.7389 9.29402 13.8191C9.56171 13.9192 9.81028 13.9793 10.0206 13.9793C10.5751 13.9793 11.2252 13.6188 12.0282 13.1381C13.6152 12.2369 15.6038 11.0753 17.4585 12.6174C18.7395 13.6789 19.3705 16.2224 19.0646 18.9862C18.8543 20.7887 18.2615 22.5311 17.3437 24.0131C16.273 25.7355 14.8007 27.0373 12.9652 27.9385C12.5636 28.1388 12.1239 28.0387 11.5885 27.6581C11.1487 27.3377 10.6516 27.1775 10.1353 27.1374C10.1162 27.1374 10.0971 27.1374 10.078 27.1374C9.50435 27.1174 8.93074 27.2977 8.45272 27.6581C7.91735 28.0387 7.47758 28.1188 7.07605 27.9385C6.36859 27.5981 5.69938 27.1775 5.08752 26.6968C4.89632 26.5366 4.60951 26.5767 4.45655 26.797C4.30359 26.9972 4.34183 27.2977 4.55215 27.4579C5.20225 27.9786 5.92882 28.4392 6.69364 28.7997C6.96133 28.9399 7.22902 28.98 7.4967 28.98C8.07032 28.98 8.58657 28.7196 8.94986 28.4392C9.2749 28.1989 9.65731 28.0787 10.0588 28.0988C10.078 28.0988 10.0971 28.0988 10.1162 28.0988C10.4604 28.1188 10.8045 28.2389 11.0913 28.4392C11.6458 28.8398 12.468 29.2203 13.3476 28.7997C14.055 28.4593 14.7242 28.0387 15.3361 27.578C16.8466 28.5193 18.5866 29.02 20.3839 29.02C25.6994 29.02 30.0015 24.654 30.0015 19.2866C30.0015 18.3453 29.6956 17.1837 29.1028 15.8418ZM10.2309 9.63329L12.8122 5.80801L14.9728 6.10843C14.8581 6.32873 14.7242 6.56906 14.5713 6.78936C13.5579 8.31146 11.9709 9.33287 10.2309 9.63329ZM13.5579 3.08425L12.9652 1.72238C13.577 1.38191 14.2462 1.14157 14.9537 1.02141L13.5579 3.08425ZM15.6803 1.56215C15.8906 2.78384 15.7759 4.04558 15.3743 5.20718L13.4049 4.94682L15.6803 1.56215ZM12.2003 2.22307L12.9843 3.9855L12.2577 5.02693L11.665 5.88812L10.7663 3.64503C11.1678 3.10428 11.6458 2.60359 12.2003 2.22307ZM10.1736 4.60635L11.0531 6.78936L9.50435 9.09254C9.25578 7.57044 9.48523 5.96823 10.1736 4.60635Z" fill="#961914"/>
</g>
<defs>
<clipPath id="clip0">
<rect width="30" height="29" fill="white"/>
</clipPath>
</defs>
</svg>
