<svg width="26" height="20" viewBox="0 0 26 20" fill="none" xmlns="http://www.w3.org/2000/svg">
<g clip-path="url(#clip0)">
<path d="M17.7248 0.47619C17.3761 0.47619 17.1376 0.745342 17.1376 1.13872C17.1376 1.53209 17.3761 1.80124 17.7248 1.80124C21.633 1.80124 24.8257 1.92547 24.8257 3.00207C24.8257 5.61077 18.9725 8.53002 15.5413 10.207C15.1193 9.81366 14.8257 8.88199 14.8257 8.13665C14.8257 7.3913 15.0642 6.72878 15.4679 6.27329C16.1101 5.61077 16.4771 4.53416 16.4771 3.47826C16.4771 2.21532 15.8899 1.0766 14.8807 0.538302C14.8257 0.47619 14.6972 0.47619 14.6422 0.47619C13.8349 0.393375 12.9358 0.331263 12.1101 0.269151C10.7523 0.124224 9.33945 0 8.0367 0C4.20184 0 2.31193 1.92547 1.3578 3.54037C0.715596 4.65839 0 6.72878 0 8.61284C0 10.4141 0.715596 12.7536 1.24771 14.617C1.3578 14.9482 1.43119 15.2795 1.54128 15.5487C1.65138 15.942 1.77982 16.3354 1.83486 16.6667C2.36697 18.53 2.7156 20 4.31193 20C5.19266 20 6.20183 18.9234 7.90826 16.9979C9.04587 15.735 10.3486 14.3478 11.1743 13.8716C11.7615 13.5404 12.4771 13.2091 13.2477 12.8778C13.5413 12.7329 13.6514 12.3395 13.5413 12.0083C13.4312 11.677 13.0642 11.5321 12.7706 11.677C12 12.0704 11.2844 12.4017 10.6972 12.6708C9.63303 13.2091 8.33027 14.6791 7.10092 16.0663C6.14679 17.0807 4.73394 18.6749 4.31193 18.6749C3.72477 18.6749 3.48624 18.1988 3.00917 16.2733C2.89908 15.942 2.84404 15.5487 2.7156 15.1346C2.6055 14.8033 2.53211 14.472 2.42202 14.1408C1.88991 12.3395 1.24771 10.1449 1.24771 8.61284C1.24771 6.87371 1.9633 5.07246 2.36697 4.34783C3.48624 2.33954 5.43119 1.32505 8.09174 1.32505C9.33945 1.32505 10.7523 1.44928 12.1101 1.5942C12.9358 1.65631 13.7615 1.71843 14.5872 1.80124C15.1193 2.13251 15.4128 2.73292 15.4128 3.47826C15.4128 4.2236 15.1743 4.88613 14.7706 5.34161C14.1284 6.00414 13.7798 7.06004 13.7798 8.13665C13.7798 9.13043 14.2018 10.8696 15.3761 11.5321C15.5596 11.5942 15.7248 11.5942 15.8532 11.5321C20.9358 9.00621 26.0183 6.27329 26.0183 3.00207C26 0.600414 22.9908 0.47619 17.7248 0.47619Z" fill="#961914"/>
</g>
<defs>
<clipPath id="clip0">
<rect width="26" height="20" fill="white"/>
</clipPath>
</defs>
</svg>
