<svg width="30" height="30" viewBox="0 0 30 30" fill="none" xmlns="http://www.w3.org/2000/svg">
<path d="M30 16.9136C30 14.8148 28.9771 12.7866 27.2663 11.5344C26.9136 11.2698 26.4903 11.1287 26.0494 11.1287C25.5026 11.1287 24.9912 11.3404 24.6208 11.7108C24.5503 11.6578 24.4797 11.5873 24.4092 11.5344C24.1446 11.3228 23.8272 11.1993 23.4921 11.164L23.7037 8.81834C23.7037 8.76543 23.7037 8.71252 23.7037 8.64198C23.7037 7.60141 22.8571 6.77249 21.8342 6.77249H21.7108C20.6702 6.77249 19.8413 7.61905 19.8413 8.64198C19.8413 8.69489 19.8413 8.7478 19.8413 8.81834L20.0529 11.1817C19.7531 11.2346 19.4533 11.358 19.2064 11.552C19.1182 11.6226 19.0476 11.6931 18.9594 11.7637C18.9242 11.7108 18.8713 11.6755 18.8183 11.6402C18.8536 11.4638 18.8713 11.2875 18.8713 11.1287C18.8713 10.5115 18.6772 9.92945 18.3245 9.43563C18.6772 8.9418 18.8713 8.35979 18.8713 7.7425C18.8713 6.08466 17.478 4.74427 15.8025 4.85009C15.485 3.96825 14.7619 3.28042 13.8801 3.03351C13.2804 2.29277 12.3986 1.88713 11.4462 1.94004C11.0406 0.793651 9.96473 0 8.71252 0C7.65432 0 6.70194 0.564374 6.19048 1.44621C4.92063 1.49912 3.80952 2.39859 3.49206 3.63316C1.99295 4.19753 0.970018 5.64374 0.970018 7.24868C0.970018 8.53616 1.60494 9.73545 2.66314 10.4409C2.50441 10.8113 2.41623 11.2169 2.41623 11.6049C2.41623 12.4691 2.80423 13.2804 3.47443 13.8272C3.42152 14.0564 3.38624 14.2857 3.38624 14.515C3.38624 15.9965 4.49735 17.231 5.94356 17.3898L7.0194 20.388C6.47266 20.7937 5.99647 21.3051 5.64374 21.8695L3.10406 21.3051C3.01587 21.2875 2.91005 21.2698 2.80423 21.2698C2.06349 21.2698 1.44621 21.8695 1.44621 22.6279V22.8219C1.44621 22.963 1.46384 23.0864 1.51675 23.2099H1.44621C0.652557 23.2275 0 23.8801 0 24.6737C0 25.4674 0.652557 26.1199 1.44621 26.1199H1.51675C1.48148 26.2434 1.44621 26.3668 1.44621 26.5079V26.7019C1.44621 27.4427 2.04586 28.06 2.80423 28.06C2.91005 28.06 2.99824 28.0423 3.10406 28.0247L5.64374 27.4603C6.57848 28.9771 8.25397 30 10.1587 30H10.2646C10.5291 30 10.8113 29.9824 11.0758 29.9295L27.672 27.3721C29.0123 27.1605 30 26.0317 30 24.6561C30 23.5626 29.3651 22.6279 28.4303 22.1869C29.4356 20.9877 30 19.4709 30 17.9012V16.9136ZM23.8272 12.3104C25.2734 13.4215 26.1376 15.1675 26.1376 17.0194V18.8007C26.1376 19.7884 25.8907 20.7584 25.4321 21.6226L21.552 21.0229C21.3933 20.3175 21.3051 19.612 21.3051 18.8889V16.9136C21.3051 16.4198 21.358 15.9436 21.4286 15.4497C21.552 15.4674 21.6578 15.4674 21.7813 15.4674C23.157 15.4674 24.1975 14.8501 24.1975 14.0212C24.1975 13.5626 23.8801 13.157 23.3333 12.8924L23.4039 12.1164C23.545 12.1517 23.6861 12.2046 23.8272 12.3104ZM21.7108 7.7425H21.8342C22.328 7.7425 22.7337 8.14815 22.7337 8.64198C22.7337 8.67725 22.7337 8.69489 22.7337 8.73016L22.2928 13.5626L22.6631 13.6861C23.0864 13.8272 23.2275 14.0035 23.2275 14.0388C23.2275 14.1623 22.716 14.515 21.7813 14.515C20.8466 14.515 20.3351 14.1446 20.3351 14.0388C20.3351 14.0035 20.4762 13.8272 20.8995 13.6861L21.2698 13.5626L20.8113 8.73016C20.8113 8.69489 20.8113 8.67725 20.8113 8.64198C20.8113 8.14815 21.2169 7.7425 21.7108 7.7425ZM20.1411 12.134L20.2116 12.8924C19.6649 13.157 19.3474 13.5626 19.3474 14.0212C19.3474 14.5503 19.7884 14.9912 20.4586 15.2557C20.3704 15.8025 20.3175 16.3668 20.3175 16.9136V18.8713C20.3175 19.5414 20.388 20.194 20.5115 20.8466L17.6543 20.4056C17.4956 19.8765 17.4074 19.3298 17.4074 18.7654V17.0194C17.4074 15.1852 18.2892 13.4215 19.7707 12.3104C19.8942 12.2222 20.0176 12.1693 20.1411 12.134ZM14.9206 20C14.6561 19.3298 14.515 18.642 14.515 17.9189V16.9136C14.515 15.1146 15.3968 13.3862 16.8607 12.3104C17.037 12.1693 17.2663 12.0988 17.4956 12.0988C17.7954 12.0988 18.06 12.2222 18.254 12.4162C17.1076 13.6684 16.455 15.3086 16.455 17.0194V18.8007C16.455 19.2945 16.5079 19.7884 16.6138 20.2822L14.9206 20ZM14.9559 5.46737L15.0441 5.9612L15.5379 5.85538C15.6966 5.82011 15.8377 5.80247 15.9612 5.80247C17.037 5.80247 17.9012 6.66667 17.9012 7.7425C17.9012 8.25397 17.7072 8.73016 17.3545 9.10053L17.0194 9.43563L17.3545 9.77072C17.7072 10.1411 17.9012 10.6173 17.9012 11.1287C17.9012 11.1464 17.9012 11.164 17.9012 11.164C17.7601 11.1464 17.6367 11.1287 17.4956 11.1287C17.0547 11.1287 16.6314 11.2698 16.2787 11.5344C15.3968 12.1693 14.709 13.0335 14.2328 13.9859C14.0564 13.4215 13.8624 12.8748 13.6684 12.3457C14.1093 9.98236 15.7672 8.62434 15.7848 8.6067L15.485 8.21869L15.1852 7.84832C15.1146 7.90123 13.8095 8.97707 13.0688 10.8995C12.0635 8.58906 11.1111 7.08995 11.0582 7.00176L10.2293 7.51323C10.2469 7.53086 10.9877 8.69489 11.8342 10.5467C10.4056 10 8.7478 10.1587 8.65961 10.1587L8.7478 11.1287C9.4709 11.0582 11.5344 11.0935 12.5044 12.0811C12.8395 12.9101 13.1746 13.8272 13.4744 14.8148C12.0106 14.0388 10.2469 14.0388 10.1587 14.0388V14.9912C10.1764 14.9912 12.328 15.0088 13.6155 16.0141C13.5802 16.3139 13.545 16.6138 13.545 16.9136V17.9365C13.545 18.5891 13.6508 19.224 13.8272 19.8413L11.0758 19.418C10.9347 19.4004 10.7937 19.3827 10.6526 19.3651C9.57672 19.3651 8.71252 18.4832 8.71252 17.4074C8.71252 17.1781 8.76543 16.9489 8.85362 16.7196L8.99471 16.3492L8.64198 16.1552C8.0776 15.8025 7.7425 15.1852 7.7425 14.515C7.7425 14.127 7.84832 13.7566 8.05997 13.4392L8.35979 12.9806L7.8836 12.7513C6.89594 12.2575 6.2963 11.2698 6.2963 10.1587C6.2963 8.87125 7.16049 7.72487 8.39506 7.37213L8.69489 7.28395L8.7478 6.96649C8.87125 6.03175 9.70018 5.32628 10.6526 5.32628C10.6702 5.32628 10.6878 5.32628 10.7055 5.32628C10.7407 5.32628 10.776 5.34392 10.8113 5.34392L11.164 5.37919L11.2875 5.04409C11.5873 4.32099 12.2928 3.86243 13.0688 3.86243C14.0035 3.86243 14.7972 4.55026 14.9559 5.46737ZM6.63139 16.455H6.2963C5.22046 16.455 4.35626 15.5908 4.35626 14.515C4.35626 14.2857 4.40917 14.0564 4.49735 13.8272L4.63845 13.4568L4.28571 13.2452C3.72134 12.8924 3.38624 12.2751 3.38624 11.6049C3.38624 11.2169 3.49206 10.8466 3.7037 10.5291L4.00353 10.0705L3.52734 9.84127C2.53968 9.34744 1.94004 8.35979 1.94004 7.24868C1.94004 5.9612 2.80423 4.81481 4.0388 4.46208L4.33862 4.3739L4.39153 4.05644C4.53263 3.12169 5.34391 2.39859 6.2963 2.39859C6.31393 2.39859 6.33157 2.39859 6.34921 2.39859C6.38448 2.39859 6.41975 2.39859 6.45503 2.41623L6.80776 2.4515L6.94885 2.13404C7.23104 1.42857 7.93651 0.970018 8.71252 0.970018C9.64727 0.970018 10.4409 1.64021 10.6173 2.57496L10.7055 3.06878L11.1993 2.96296C11.358 2.92769 11.4815 2.91005 11.6226 2.91005C11.8519 2.91005 12.0635 2.96296 12.2575 3.03351C11.5344 3.22751 10.9171 3.7037 10.5467 4.35626C9.25926 4.39153 8.16578 5.30864 7.84832 6.54321C6.34921 7.08995 5.32628 8.53616 5.32628 10.1587C5.32628 11.4462 5.9612 12.6455 7.0194 13.351C6.86067 13.7213 6.77249 14.1093 6.77249 14.515C6.77249 15.3792 7.16049 16.1905 7.83069 16.7372C7.77778 16.9665 7.7425 17.1958 7.7425 17.425C7.7425 18.2716 8.11287 19.0476 8.69489 19.5767C8.4127 19.6649 8.13051 19.7707 7.86596 19.8942L6.63139 16.455ZM2.41623 22.8395V22.6455C2.41623 22.3986 2.6455 22.2222 2.89242 22.2751L5.20282 22.7866C5.13228 22.9277 5.07936 23.0688 5.04409 23.2275H2.80423C2.59259 23.2275 2.41623 23.0511 2.41623 22.8395ZM0.970018 24.6737C0.970018 24.4092 1.18166 24.1975 1.44621 24.1975H2.80423H4.86772C4.85009 24.3563 4.85009 24.515 4.85009 24.6737C4.85009 24.8325 4.86772 24.9912 4.86772 25.1499H2.80423H1.44621C1.18166 25.1499 0.970018 24.9383 0.970018 24.6737ZM2.89242 27.0899C2.66314 27.1429 2.41623 26.9489 2.41623 26.7196V26.5256C2.41623 26.3139 2.59259 26.1376 2.80423 26.1376H5.04409C5.07936 26.2963 5.13228 26.4374 5.18519 26.5785L2.89242 27.0899ZM29.03 24.6737C29.03 25.5556 28.3951 26.2963 27.5309 26.4198L10.9347 28.9771C10.7231 29.0123 10.4938 29.03 10.2646 29.03H10.1587C7.76014 29.03 5.80247 27.0723 5.80247 24.6737C5.80247 22.2751 7.76014 20.3175 10.1587 20.3175H10.2646C10.4762 20.3175 10.7055 20.3351 10.9347 20.3704L27.5309 22.9277C28.3951 23.0511 29.03 23.7919 29.03 24.6737ZM29.03 17.9189C29.03 19.4004 28.4303 20.8466 27.3721 21.9224L26.4021 21.7813C26.843 20.8466 27.0723 19.8413 27.0723 18.8007V17.0194C27.0723 15.3086 26.4198 13.6508 25.291 12.3986C25.485 12.2222 25.7496 12.0988 26.0317 12.0988C26.261 12.0988 26.4903 12.1693 26.6667 12.3104C28.1305 13.3862 29.0123 15.1146 29.0123 16.9136L29.03 17.9189Z" fill="#961914"/>
<path d="M9.68253 22.2574H10.6525V27.0899H9.68253V22.2574Z" fill="#961914"/>
<path d="M13.545 22.2574H14.515V27.0899H13.545V22.2574Z" fill="#961914"/>
<path d="M17.425 22.2574H18.3951V27.0899H17.425V22.2574Z" fill="#961914"/>
<path d="M21.2875 23.2275H22.2575V26.1376H21.2875V23.2275Z" fill="#961914"/>
<path d="M25.1499 23.7037H26.1199V25.6437H25.1499V23.7037Z" fill="#961914"/>
</svg>
