<svg width="30" height="31" viewBox="0 0 30 31" fill="none" xmlns="http://www.w3.org/2000/svg">
<path d="M10.8632 13.1303C10.4023 11.5428 8.9978 10.4543 7.37381 10.4543C5.74982 10.4543 4.34528 11.5428 3.88442 13.1303C2.72129 13.8786 1.75567 15.0352 1.07535 16.4638C0.37308 17.9605 0 19.7067 0 21.5436C0 24.0381 0.680322 26.3739 1.93124 28.0747C3.29188 29.9569 5.22312 30.9774 7.37381 30.9774C9.52451 30.9774 11.4557 29.9569 12.8164 28.0747C12.97 27.8706 12.9261 27.5984 12.7286 27.4397C12.5311 27.281 12.2677 27.3263 12.1141 27.5304C10.929 29.1632 9.23921 30.0703 7.37381 30.0703C5.50841 30.0703 3.81858 29.1632 2.6335 27.5304C1.49232 25.9657 0.877835 23.834 0.877835 21.5436C0.877835 19.8428 1.20702 18.21 1.8654 16.872C2.50183 15.5341 3.40161 14.4909 4.4989 13.8333C4.60863 13.7652 4.67447 13.6745 4.69642 13.5385C5.00366 12.2685 6.10095 11.3614 7.37381 11.3614C8.64667 11.3614 9.76591 12.2458 10.0512 13.5385C10.0732 13.6518 10.1609 13.7652 10.2487 13.8333C11.346 14.4909 12.2458 15.5567 12.8822 16.872C13.5187 18.2327 13.8698 19.8428 13.8698 21.5436C13.8698 23.063 13.6064 24.5143 13.0797 25.7842C12.992 26.011 13.0797 26.2832 13.3211 26.3739C13.5406 26.4646 13.8039 26.3739 13.8917 26.1244C14.4623 24.7411 14.7476 23.1763 14.7476 21.5436C14.7476 19.7067 14.3745 17.9379 13.6723 16.4638C13.0139 15.0352 12.0263 13.8786 10.8632 13.1303Z" fill="#961914"/>
<path d="M4.08197 18.7088C3.84056 18.6408 3.59916 18.7769 3.53332 19.0263C3.31386 19.7974 3.20413 20.6591 3.20413 21.5435C3.20413 25.1039 4.9598 27.6664 7.37385 27.6664C9.78789 27.6664 11.5436 25.0812 11.5436 21.5435C11.5436 18.0058 9.78789 15.4206 7.37385 15.4206C6.27655 15.4206 5.26704 15.9649 4.52088 16.9627C4.36726 17.1668 4.41115 17.4389 4.58672 17.5977C4.78423 17.7564 5.04758 17.711 5.20121 17.5069C5.79374 16.7359 6.5399 16.3277 7.37385 16.3277C9.28314 16.3277 10.6657 18.5274 10.6657 21.5435C10.6657 24.5596 9.28314 26.7593 7.37385 26.7593C5.46456 26.7593 4.08197 24.5596 4.08197 21.5435C4.08197 20.7271 4.1917 19.9561 4.38921 19.2758C4.45505 19.0263 4.30143 18.7769 4.08197 18.7088Z" fill="#961914"/>
<path d="M28.0688 2.90271C26.7081 1.02048 24.7769 0 22.6262 0C20.4755 0 18.5223 1.02048 17.1836 2.90271C16.3058 4.10461 15.6913 5.64667 15.4279 7.34748C15.3621 7.57425 15.5377 7.8237 15.7791 7.86906C16.0205 7.89173 16.2399 7.73299 16.2838 7.48354C16.5252 5.94148 17.0739 4.53548 17.8859 3.44696C19.071 1.81419 20.7389 0.907096 22.6262 0.907096C24.4916 0.907096 26.1814 1.81419 27.3665 3.44696C28.5077 5.0117 29.1222 7.14338 29.1222 9.4338C29.1222 11.1346 28.793 12.7674 28.1346 14.1053C27.4982 15.4433 26.5984 16.4865 25.5011 17.1441C25.3914 17.2121 25.3255 17.3029 25.3036 17.4389C24.9963 18.7089 23.8991 19.6159 22.6262 19.6159C21.3533 19.6159 20.2341 18.7315 19.9488 17.4389C19.9049 17.3255 19.8391 17.2348 19.7293 17.1668C18.632 16.5091 17.7323 15.4433 17.0958 14.128C16.4594 12.7674 16.1302 11.1346 16.1302 9.4338C16.1302 9.18435 15.9327 8.98025 15.6913 8.98025C15.4499 8.98025 15.2524 9.18435 15.2524 9.4338C15.2524 11.2707 15.6255 13.0395 16.3277 14.5135C17.0081 15.9422 17.9737 17.0988 19.1368 17.8471C19.5977 19.4345 21.0022 20.523 22.6262 20.523C24.2502 20.523 25.6547 19.4345 26.1156 17.8471C27.2787 17.0988 28.2663 15.9422 28.9247 14.5135C29.6269 13.0395 30 11.2707 30 9.4338C30 6.93928 29.2977 4.62619 28.0688 2.90271Z" fill="#961914"/>
<path d="M26.0498 11.8602C26.2912 11.9055 26.5326 11.7695 26.5765 11.52C26.7301 10.8624 26.7959 10.1594 26.7959 9.4337C26.7959 5.87335 25.0403 3.31081 22.6262 3.31081C20.2122 3.31081 18.4346 5.89603 18.4346 9.4337C18.4346 12.9714 20.1902 15.5566 22.6043 15.5566C23.8991 15.5566 25.0403 14.8082 25.8303 13.4703C25.962 13.2435 25.8742 12.9714 25.6767 12.858C25.4572 12.7219 25.1939 12.8126 25.0842 13.0167C24.4697 14.0826 23.5918 14.6722 22.6262 14.6722C20.7169 14.6722 19.3344 12.4725 19.3344 9.45638C19.3344 6.44029 20.7169 4.24058 22.6262 4.24058C24.5355 4.24058 25.9181 6.44029 25.9181 9.45638C25.9181 10.114 25.8523 10.749 25.7206 11.3386C25.6548 11.5654 25.8084 11.8148 26.0498 11.8602Z" fill="#961914"/>
<path d="M6.43017 23.5844C6.43017 23.335 6.23266 23.1309 5.99125 23.1309C5.74985 23.1309 5.55234 23.335 5.55234 23.5844C5.55234 23.8339 5.74985 24.038 5.99125 24.038C6.23266 24.038 6.43017 23.8339 6.43017 23.5844Z" fill="#961914"/>
<path d="M7.7469 25.308C7.98931 25.308 8.18582 25.1049 8.18582 24.8544C8.18582 24.6039 7.98931 24.4009 7.7469 24.4009C7.50449 24.4009 7.30798 24.6039 7.30798 24.8544C7.30798 25.1049 7.50449 25.308 7.7469 25.308Z" fill="#961914"/>
<path d="M8.515 19.2077C8.75741 19.2077 8.95391 19.0047 8.95391 18.7542C8.95391 18.5037 8.75741 18.3006 8.515 18.3006C8.27259 18.3006 8.07608 18.5037 8.07608 18.7542C8.07608 19.0047 8.27259 19.2077 8.515 19.2077Z" fill="#961914"/>
<path d="M20.7827 7.41545C20.7827 7.6649 20.9802 7.869 21.2216 7.869C21.463 7.869 21.6605 7.6649 21.6605 7.41545C21.6605 7.166 21.463 6.9619 21.2216 6.9619C20.9802 6.9619 20.7827 7.166 20.7827 7.41545Z" fill="#961914"/>
<path d="M22.9774 6.59905C23.2198 6.59905 23.4163 6.39599 23.4163 6.1455C23.4163 5.89502 23.2198 5.69196 22.9774 5.69196C22.735 5.69196 22.5385 5.89502 22.5385 6.1455C22.5385 6.39599 22.735 6.59905 22.9774 6.59905Z" fill="#961914"/>
<path d="M23.7674 12.6992C24.0098 12.6992 24.2063 12.4962 24.2063 12.2457C24.2063 11.9952 24.0098 11.7921 23.7674 11.7921C23.525 11.7921 23.3285 11.9952 23.3285 12.2457C23.3285 12.4962 23.525 12.6992 23.7674 12.6992Z" fill="#961914"/>
</svg>
