<svg width="1440" height="530" viewBox="0 0 1440 530" fill="none" xmlns="http://www.w3.org/2000/svg">
<g clip-path="url(#clip0)">
<path d="M1317.58 292.198C1314.31 297.291 1311.63 302.702 1309.5 308.338C1309.2 309.182 1310.55 309.491 1310.85 308.647C1312.92 303.118 1315.59 297.806 1318.79 292.82C1319.29 292.082 1318.06 291.436 1317.58 292.198Z" fill="white"/>
<path d="M1333.58 293.585C1335.97 299.648 1337.84 305.937 1339.18 312.327C1339.39 313.185 1340.72 312.78 1340.54 311.907C1339.2 305.517 1337.3 299.243 1334.94 293.165C1334.58 292.334 1333.25 292.739 1333.58 293.585Z" fill="white"/>
<path d="M1305.58 280.856C1299.63 283.125 1293.69 285.378 1287.74 287.647C1286.91 287.965 1287.29 289.308 1288.14 288.975C1294.09 286.706 1300.02 284.453 1305.98 282.184C1306.82 281.89 1306.45 280.547 1305.58 280.856Z" fill="white"/>
</g>
<g clip-path="url(#clip1)">
<path d="M54.3137 193.309C59.6912 190.532 64.7124 187.182 69.3812 183.37C70.063 182.789 69.0489 181.848 68.3671 182.429C63.8085 186.181 58.8405 189.446 53.5733 192.162C52.7728 192.552 53.5142 193.726 54.3137 193.309Z" fill="white"/>
<path d="M41.1499 184.106C42.1094 177.659 43.6323 171.277 45.6663 165.072C45.9182 164.227 44.5605 163.911 44.2806 164.757C42.2466 170.962 40.7517 177.343 39.7642 183.791C39.6544 184.687 41.012 185.004 41.1499 184.106Z" fill="white"/>
<path d="M59.0323 209.128C65.3242 210.142 71.5881 211.156 77.88 212.169C78.7546 212.307 79.1015 210.956 78.1989 210.82C71.907 209.806 65.6431 208.792 59.3512 207.779C58.4757 207.613 58.1288 208.964 59.0323 209.128Z" fill="white"/>
</g>
<g clip-path="url(#clip2)">
<path d="M1268.22 -62.8184C1246.77 -45.2486 1230.25 -22.1051 1219.64 3.43162C1208.82 29.453 1203.97 58.3522 1206.82 86.4637C1208.3 101.065 1212.09 115.848 1220.4 128.116C1228.76 140.475 1241.22 149.563 1254.28 156.5C1267.59 163.589 1282.32 168.86 1297.38 170.405C1311.11 171.828 1325.81 169.799 1337.21 161.529C1354.85 148.715 1361.12 117.756 1341.12 104.064C1335.57 100.277 1328.96 98.399 1322.36 97.5811C1315.2 96.7026 1307.72 96.945 1300.72 98.7322C1287.26 102.155 1277.44 111.94 1271.68 124.299C1259.62 150.109 1263.07 181.795 1274.2 207.271C1285.77 233.807 1306.72 255.133 1331.81 269.28C1355.82 282.851 1383.34 290.121 1410.95 289.97C1437.62 289.818 1464.51 282.639 1486.69 267.614C1492.06 263.979 1497.15 259.859 1501.85 255.406C1502.54 254.739 1501.48 253.649 1500.79 254.345C1481.81 272.37 1457.17 283.214 1431.38 286.971C1405.37 290.757 1378.55 287.425 1354.06 278.065C1328.27 268.219 1304.63 251.649 1288.41 229.112C1271.83 206.12 1263.1 176.887 1266.59 148.564C1268.19 135.477 1272.56 121.997 1281.5 112.031C1291.35 101.065 1305.81 97.672 1320.08 98.8534C1332.9 99.9137 1346.18 105.639 1350.54 118.695C1354.09 129.297 1351.42 141.445 1345.42 150.623C1329.51 175.039 1295.11 171.253 1271.5 162.529C1257.4 157.318 1243.55 149.775 1232.43 139.567C1221.55 129.57 1214.64 116.756 1211.12 102.489C1207.73 88.7962 1207.09 74.4072 1207.97 60.3818C1208.82 46.8107 1211.27 33.3607 1215.24 20.3652C1223.06 -5.26237 1236.67 -29.2541 1255.22 -48.6414C1259.68 -53.3065 1264.41 -57.6686 1269.41 -61.7581C1270.04 -62.364 1268.98 -63.4242 1268.22 -62.8184Z" fill="white"/>
</g>
<g clip-path="url(#clip3)">
<path d="M-80.4535 525.438C-53.0846 520.951 -27.2074 509.168 -5.25201 492.356C17.1294 475.231 35.7788 452.629 47.3672 426.859C53.3815 413.471 57.4919 398.775 56.434 383.997C55.3691 369.111 49.1248 355.012 41.2802 342.473C33.3013 329.681 23.18 317.752 10.9069 308.882C-0.271824 300.784 -14.0172 295.191 -28.0216 296.655C-49.7051 298.932 -70.6181 322.607 -60.1402 344.467C-57.23 350.519 -52.4469 355.449 -47.1337 359.461C-41.3782 363.799 -34.7737 367.332 -27.8166 369.285C-14.4507 373.049 -1.05393 369.485 10.113 361.661C33.4646 345.341 46.3153 316.173 49.4201 288.548C52.6613 259.778 45.1866 230.837 30.5261 206.038C16.5228 182.282 -3.67582 162.226 -27.664 148.551C-50.8385 135.346 -77.7106 128.122 -104.437 130.041C-110.901 130.506 -117.37 131.528 -123.665 133.036C-124.602 133.264 -124.229 134.739 -123.277 134.484C-97.8332 128.362 -71.0707 131.29 -46.855 140.934C-22.4405 150.657 -0.876549 166.955 15.6521 187.306C33.0671 208.729 45.2559 234.9 48.03 262.526C50.8919 290.727 43.8353 320.408 26.6549 343.194C18.7206 353.724 8.20066 363.216 -4.52581 367.376C-18.5396 371.948 -32.7565 367.657 -44.5289 359.496C-55.1019 352.168 -63.7361 340.572 -60.9878 327.082C-58.7577 316.127 -50.3742 306.941 -40.5876 301.993C-14.5992 288.804 13.2996 309.284 29.3851 328.645C38.9855 340.204 47.2097 353.662 51.7386 368.065C56.1636 382.162 55.7414 396.715 51.6523 410.829C47.746 424.384 41.1027 437.164 33.3288 448.87C25.8083 460.199 16.9572 470.62 7.02082 479.889C-12.5651 498.173 -36.3466 512.146 -62.1043 519.661C-68.2954 521.474 -74.5713 522.887 -80.947 523.928C-81.8012 524.135 -81.4126 525.583 -80.4535 525.438Z" fill="white"/>
</g>
<defs>
<clipPath id="clip0">
<rect x="1345.17" y="309.579" width="38" height="49" rx="2" transform="rotate(148.054 1345.17 309.579)" fill="white"/>
</clipPath>
<clipPath id="clip1">
<rect x="39.1068" y="164.458" width="38" height="49" rx="2" transform="rotate(-1.94609 39.1068 164.458)" fill="white"/>
</clipPath>
<clipPath id="clip2">
<rect x="1206" width="296" height="290" rx="2" fill="white"/>
</clipPath>
<clipPath id="clip3">
<rect x="-26.6565" y="556.707" width="296" height="353" rx="2" transform="rotate(-150 -26.6565 556.707)" fill="white"/>
</clipPath>
</defs>
</svg>
