<svg width="252" height="1176" viewBox="0 0 252 1176" fill="none" xmlns="http://www.w3.org/2000/svg">
<g clip-path="url(#clip0)">
<path d="M214.455 94.42C212.399 97.6235 210.717 101.028 209.373 104.572C209.184 105.103 210.033 105.297 210.222 104.766C211.525 101.289 213.204 97.9479 215.219 94.8114C215.533 94.3474 214.759 93.941 214.455 94.42Z" fill="white"/>
<path d="M224.52 95.2927C226.025 99.1063 227.203 103.062 228.046 107.082C228.175 107.621 229.014 107.367 228.9 106.818C228.057 102.798 226.864 98.8517 225.374 95.0287C225.152 94.506 224.313 94.7606 224.52 95.2927Z" fill="white"/>
<path d="M206.91 87.2865C203.164 88.7134 199.433 90.1309 195.686 91.5577C195.167 91.7578 195.402 92.6025 195.937 92.3931C199.683 90.9663 203.414 89.5488 207.16 88.122C207.689 87.9368 207.454 87.092 206.91 87.2865Z" fill="white"/>
</g>
<g clip-path="url(#clip1)">
<path d="M37.4881 1080.58C32.3949 1077.31 26.9832 1074.63 21.3474 1072.5C20.5034 1072.2 20.195 1073.55 21.039 1073.85C26.5681 1075.92 31.8792 1078.59 36.8657 1081.79C37.6035 1082.29 38.2495 1081.06 37.4881 1080.58Z" fill="white"/>
<path d="M36.1007 1096.58C30.0377 1098.97 23.7489 1100.84 17.3585 1102.18C16.5006 1102.39 16.9054 1103.72 17.7782 1103.54C24.1686 1102.2 30.4425 1100.3 36.5204 1097.94C37.3514 1097.58 36.9466 1096.25 36.1007 1096.58Z" fill="white"/>
<path d="M48.8291 1068.58C46.5607 1062.63 44.3072 1056.69 42.0388 1050.74C41.7207 1049.91 40.3777 1050.29 40.7106 1051.14C42.979 1057.09 45.2326 1063.02 47.501 1068.98C47.7954 1069.82 49.1384 1069.45 48.8291 1068.58Z" fill="white"/>
</g>
<g clip-path="url(#clip2)">
<path d="M392.503 1031.22C374.933 1009.77 351.79 993.247 326.253 982.639C300.232 971.818 271.333 966.969 243.221 969.818C228.62 971.303 213.837 975.092 201.569 983.396C189.209 991.762 180.122 1004.22 173.185 1017.28C166.096 1030.59 160.825 1045.32 159.28 1060.38C157.856 1074.11 159.886 1088.81 168.156 1100.21C180.97 1117.85 211.929 1124.12 225.621 1104.12C229.408 1098.57 231.286 1091.96 232.104 1085.36C232.982 1078.2 232.74 1070.72 230.953 1063.72C227.53 1050.26 217.745 1040.44 205.386 1034.68C179.576 1022.62 147.89 1026.07 122.414 1037.2C95.8777 1048.77 74.5517 1069.72 60.4051 1094.81C46.834 1118.82 39.5637 1146.34 39.7152 1173.95C39.8667 1200.62 47.046 1227.51 62.0712 1249.69C65.7063 1255.06 69.8261 1260.15 74.2791 1264.85C74.9455 1265.54 76.0361 1264.48 75.3393 1263.79C57.3152 1244.81 46.4704 1220.17 42.7142 1194.38C38.9276 1168.37 42.2598 1141.55 51.6202 1117.06C61.4653 1091.27 78.0354 1067.63 100.573 1051.41C123.565 1034.83 152.798 1026.1 181.121 1029.59C194.208 1031.19 207.688 1035.56 217.654 1044.5C228.62 1054.35 232.013 1068.81 230.831 1083.08C229.771 1095.9 224.046 1109.18 210.99 1113.54C200.387 1117.09 188.24 1114.42 179.061 1108.42C154.645 1092.51 158.432 1058.11 167.156 1034.5C172.367 1020.4 179.909 1006.55 190.118 995.429C200.115 984.548 212.928 977.637 227.196 974.122C240.889 970.727 255.278 970.09 269.303 970.969C282.874 971.818 296.324 974.273 309.32 978.244C334.947 986.063 358.939 999.672 378.326 1018.22C382.991 1022.68 387.353 1027.41 391.443 1032.41C392.049 1033.04 393.109 1031.98 392.503 1031.22Z" fill="white"/>
</g>
<g clip-path="url(#clip3)">
<path d="M183.1 -128.886C169.616 -117.836 159.236 -103.281 152.57 -87.2215C145.771 -70.8567 142.723 -52.6822 144.514 -35.003C145.447 -25.8204 147.828 -16.5236 153.046 -8.80799C158.303 -1.03522 166.131 4.68004 174.339 9.04269C182.7 13.5006 191.956 16.8155 201.422 17.7871C210.05 18.6825 219.287 17.406 226.448 12.2051C237.533 4.14662 241.475 -15.3234 228.905 -23.9344C225.42 -26.3158 221.268 -27.4969 217.116 -28.0113C212.621 -28.5638 207.917 -28.4114 203.517 -27.2874C195.061 -25.1346 188.89 -18.9812 185.271 -11.2084C177.691 5.02297 179.862 24.9502 186.852 40.972C194.128 57.6606 207.288 71.0724 223.058 79.9692C238.142 88.504 255.436 93.0762 272.786 92.9809C289.546 92.8857 306.44 88.3706 320.381 78.9214C323.752 76.6352 326.952 74.0443 329.904 71.2439C330.342 70.8247 329.676 70.1389 329.238 70.5771C317.315 81.9124 301.831 88.7326 285.623 91.0949C269.282 93.4762 252.426 91.3806 237.038 85.4939C220.83 79.3024 205.974 68.8815 195.785 54.7077C185.367 40.248 179.882 21.8639 182.072 4.05135C183.081 -4.17863 185.824 -12.6563 191.442 -18.924C197.632 -25.8204 206.717 -27.9541 215.687 -27.2111C223.744 -26.5444 232.086 -22.9437 234.828 -14.7328C237.057 -8.06501 235.381 -0.425611 231.61 5.34682C221.611 20.7018 199.994 18.3205 185.157 12.8338C176.301 9.55707 167.597 4.8134 160.607 -1.60675C153.77 -7.89354 149.427 -15.9521 147.218 -24.925C145.085 -33.536 144.685 -42.5852 145.237 -51.4058C145.771 -59.9406 147.313 -68.3992 149.808 -76.572C154.722 -92.6891 163.274 -107.777 174.93 -119.97C177.729 -122.904 180.7 -125.647 183.843 -128.219C184.243 -128.6 183.576 -129.267 183.1 -128.886Z" fill="white"/>
</g>
<defs>
<clipPath id="clip0">
<rect x="231.812" y="105.353" width="23.9021" height="30.8211" rx="2" transform="rotate(148.054 231.812 105.353)" fill="white"/>
</clipPath>
<clipPath id="clip1">
<rect x="20.1067" y="1108.17" width="38" height="49" rx="2" transform="rotate(-121.946 20.1067 1108.17)" fill="white"/>
</clipPath>
<clipPath id="clip2">
<rect x="329.685" y="969" width="296" height="290" rx="2" transform="rotate(90 329.685 969)" fill="white"/>
</clipPath>
<clipPath id="clip3">
<rect x="144" y="-129" width="186" height="222" rx="2" fill="white"/>
</clipPath>
</defs>
</svg>
