<svg width="20" height="22" viewBox="0 0 20 22" fill="none" xmlns="http://www.w3.org/2000/svg">
<path d="M19.2798 3.47398C18.8212 2.96957 18.1863 2.67857 17.5338 2.67857C17.5338 1.98015 17.2692 1.30114 16.8107 0.796731C15.8583 -0.250888 14.2886 -0.250888 13.3362 0.796731C12.5073 1.68915 12.4015 3.06657 12.9659 4.11419L3.77715 14.2606C2.84241 13.6398 1.55493 13.7368 0.726004 14.668C-0.226376 15.7156 -0.226376 17.4422 0.726004 18.4899C1.18456 18.9943 1.81948 19.2853 2.47204 19.2853C2.47204 20.0031 2.73659 20.7015 3.19514 21.2059C4.14752 22.2535 5.71719 22.2535 6.66957 21.2059C7.58667 20.1971 7.62195 18.6063 6.84593 17.5586L15.9641 7.48985C16.9341 8.34347 18.3803 8.28527 19.2798 7.29585C20.2322 6.24823 20.2322 4.5216 19.2798 3.47398ZM18.4509 6.38403C17.957 6.92724 17.0928 6.94665 16.5814 6.38403C16.5108 6.30643 16.4756 6.26763 16.4227 6.19003C16.2286 5.87963 15.823 5.84083 15.5761 6.11243C15.5585 6.13183 5.61137 17.1124 5.57609 17.1706C5.36445 17.4616 5.39972 17.8884 5.68191 18.1019C6.33447 18.6257 6.40502 19.6927 5.84064 20.2941C5.34681 20.8373 4.51789 20.8373 4.02406 20.2941C3.67133 19.9061 3.54787 19.2659 3.74188 18.7227C3.93588 18.1989 3.45969 17.675 2.9835 17.8884C2.50731 18.1019 1.9253 17.966 1.55493 17.578C0.761278 16.705 1.29038 15.153 2.48967 15.153C2.84241 15.153 3.1775 15.3082 3.42442 15.5604C3.65369 15.8126 4.02406 15.8126 4.25334 15.5604C14.8706 3.82319 14.2181 4.5798 14.2886 4.4246C14.3944 4.17239 14.3415 3.88139 14.1652 3.68738C13.6713 3.14417 13.6713 2.23236 14.1652 1.68915C14.659 1.14594 15.4879 1.14594 15.9817 1.68915C16.3521 2.09656 16.4579 2.67857 16.2639 3.20238C16.211 3.33818 16.211 3.51278 16.2639 3.66798C16.3874 3.99779 16.7225 4.15299 17.0223 4.03659C17.4985 3.82319 18.0805 3.95899 18.4509 4.347C18.9623 4.92901 18.9623 5.82142 18.4509 6.38403Z" fill="#961914"/>
<path d="M6.47267 7.95422C6.70195 8.20643 7.07232 8.20643 7.3016 7.95422C7.53087 7.70202 7.53087 7.29461 7.3016 7.0424L5.30865 4.85016C5.07937 4.59796 4.709 4.59796 4.47973 4.85016C4.25045 5.10237 4.25045 5.50978 4.47973 5.76198L6.47267 7.95422Z" fill="#961914"/>
<path d="M2.18699 10.2628H4.99122C5.30868 10.2628 5.57323 9.97182 5.57323 9.62262C5.57323 9.27341 5.30868 8.98241 4.99122 8.98241H2.18699C1.86953 8.98241 1.60498 9.27341 1.60498 9.62262C1.60498 9.99123 1.86953 10.2628 2.18699 10.2628Z" fill="#961914"/>
<path d="M8.81837 6.07227C9.13583 6.07227 9.40038 5.78126 9.40038 5.43206V2.328C9.40038 1.9788 9.13583 1.68779 8.81837 1.68779C8.50091 1.68779 8.23636 1.9788 8.23636 2.328V5.43206C8.23636 5.78126 8.48327 6.07227 8.81837 6.07227Z" fill="#961914"/>
<path d="M13.5979 14.0458C13.3686 13.7936 12.9982 13.7936 12.769 14.0458C12.5397 14.298 12.5397 14.7055 12.769 14.9577L14.7619 17.1499C14.8677 17.2663 15.0265 17.3439 15.1676 17.3439C15.679 17.3439 15.9436 16.6455 15.5732 16.2381L13.5979 14.0458Z" fill="#961914"/>
<path d="M17.8836 11.7373H15.0617C14.7443 11.7373 14.4797 12.0283 14.4797 12.3775C14.4797 12.7268 14.7443 13.0178 15.0617 13.0178H17.866C18.1834 13.0178 18.448 12.7268 18.448 12.3775C18.4656 12.0283 18.2011 11.7373 17.8836 11.7373Z" fill="#961914"/>
<path d="M11.2522 15.9276C10.9348 15.9276 10.6702 16.2186 10.6702 16.5678V19.6525C10.6702 20.0017 10.9348 20.2927 11.2522 20.2927C11.5697 20.2927 11.8342 20.0017 11.8342 19.6525V16.5678C11.8342 16.2186 11.5697 15.9276 11.2522 15.9276Z" fill="#961914"/>
</svg>
