<svg width="375" height="812" viewBox="0 0 375 812" fill="none" xmlns="http://www.w3.org/2000/svg">
<g clip-path="url(#clip0)">
<rect width="375" height="812" fill="white"/>
<g clip-path="url(#clip1)">
<path d="M298.559 632.247C292.877 634.331 287.476 637.028 282.368 640.227C281.619 640.719 282.508 641.779 283.257 641.288C288.248 638.134 293.585 635.515 299.15 633.477C299.993 633.19 299.404 631.933 298.559 632.247Z" fill="#EAD1D0"/>
<path d="M310.471 643.021C308.714 649.297 306.406 655.44 303.614 661.342C303.258 662.149 304.566 662.633 304.949 661.828C307.742 655.926 310.022 649.781 311.806 643.507C312.027 642.631 310.72 642.148 310.471 643.021Z" fill="#EAD1D0"/>
<path d="M295.852 615.962C289.735 614.172 283.647 612.383 277.531 610.592C276.68 610.347 276.168 611.643 277.046 611.892C283.162 613.682 289.251 615.471 295.367 617.261C296.215 617.535 296.728 616.238 295.852 615.962Z" fill="#EAD1D0"/>
</g>
<g clip-path="url(#clip2)">
<path d="M473.73 319.54C446.016 320.574 418.87 329.036 394.988 342.975C370.644 357.172 349.319 377.27 334.604 401.392C326.966 413.924 321.053 427.992 320.258 442.786C319.456 457.689 323.892 472.457 330.11 485.877C336.43 499.565 344.983 512.665 356.052 522.997C366.133 532.427 379.073 539.692 393.15 539.987C414.948 540.435 438.653 519.556 430.986 496.559C428.854 490.191 424.724 484.702 419.953 480.058C414.784 475.036 408.672 470.706 402.013 467.9C389.222 462.497 375.485 464.36 363.428 470.729C338.222 484.007 321.831 511.343 315.302 538.364C308.495 566.505 312.299 596.152 323.749 622.588C334.677 647.905 352.214 670.326 374.308 686.888C395.653 702.883 421.413 713.405 448.17 714.838C454.641 715.182 461.188 714.976 467.622 714.266C468.58 714.156 468.393 712.647 467.417 712.781C441.408 715.679 415.22 709.432 392.398 696.841C369.388 684.147 350.027 665.285 336.168 643.029C321.564 619.6 312.737 592.113 313.433 564.357C314.114 536.019 324.82 507.451 344.711 486.988C353.897 477.531 365.52 469.426 378.666 466.887C393.141 464.1 406.711 470.132 417.373 479.699C426.948 488.29 434.067 500.873 429.657 513.913C426.077 524.504 416.612 532.572 406.284 536.26C378.853 546.102 353.729 522.299 340.186 501.082C332.103 488.415 325.623 474.036 322.928 459.18C320.297 444.64 322.533 430.255 328.352 416.761C333.919 403.8 342.106 391.949 351.28 381.304C360.156 371.003 370.239 361.769 381.255 353.813C402.97 338.116 428.309 327.221 454.804 322.98C461.173 321.955 467.576 321.336 474.032 321.099C474.905 321 474.7 319.515 473.73 319.54Z" fill="#EAD1D0"/>
</g>
<g clip-path="url(#clip3)">
<path d="M15.9238 408.346C31.8085 401.163 45.6018 389.79 56.1973 376.003C67.0004 361.956 74.6478 345.189 77.4942 327.649C78.9694 318.538 79.076 308.941 76.0323 300.138C72.9665 291.27 66.8847 283.723 60.0848 277.385C53.1625 270.915 45.0796 265.317 36.1879 261.929C28.086 258.831 18.8332 257.673 10.57 260.843C-2.22262 265.758 -11.0699 283.544 -1.15682 295.115C1.59344 298.318 5.29822 300.533 9.17557 302.105C13.3742 303.802 17.9576 304.872 22.4982 304.925C31.2235 305.034 38.7766 300.688 44.2838 294.116C55.8066 280.4 58.867 260.59 56.2621 243.305C53.5539 225.302 44.313 208.941 31.3832 196.266C19.022 184.117 3.50113 175.225 -13.2829 170.827C-29.4967 166.581 -46.9831 166.57 -62.8952 172.088C-66.7431 173.424 -70.5043 175.099 -74.0806 177.04C-74.6122 177.331 -74.1458 178.166 -73.6093 177.856C-59.1592 169.993 -42.4374 167.413 -26.1704 169.326C-9.76972 171.255 5.96899 177.642 19.3099 187.311C33.363 197.486 45.0153 211.397 51.1891 227.725C57.5097 244.388 58.0498 263.566 51.3239 280.205C48.2188 287.893 43.3755 295.372 36.3263 299.972C28.5624 305.031 19.235 304.741 10.7624 301.701C3.15319 298.972 -3.97266 293.335 -4.49664 284.694C-4.9233 277.677 -1.32717 270.732 3.80939 266.132C17.4418 253.888 37.7057 261.783 50.6167 270.923C58.3231 276.38 65.5026 283.215 70.5926 291.225C75.5699 299.067 77.6786 307.975 77.4902 317.214C77.322 326.084 75.3662 334.928 72.5498 343.305C69.8257 351.411 66.1463 359.182 61.6211 366.431C52.7033 380.727 40.5381 393.088 26.1236 401.848C22.66 403.958 19.08 405.839 15.3789 407.509C14.894 407.774 15.3653 408.591 15.9238 408.346Z" fill="#EAD1D0"/>
</g>
</g>
<defs>
<clipPath id="clip0">
<rect width="375" height="812" fill="white"/>
</clipPath>
<clipPath id="clip1">
<rect x="310.045" y="662.77" width="38" height="49" rx="2" transform="rotate(-174.775 310.045 662.77)" fill="white"/>
</clipPath>
<clipPath id="clip2">
<rect x="386.193" y="332" width="296" height="290" rx="2" transform="rotate(37.1708 386.193 332)" fill="white"/>
</clipPath>
<clipPath id="clip3">
<rect x="53.6622" y="418.576" width="186" height="222" rx="2" transform="rotate(-165 53.6622 418.576)" fill="white"/>
</clipPath>
</defs>
</svg>
