<svg width="26" height="20" viewBox="0 0 26 20" fill="none" xmlns="http://www.w3.org/2000/svg">
<path d="M23.7837 3.47892C22.5914 2.54518 20.9253 1.79217 18.816 1.21988C14.7501 0.120482 10.1646 0 8.37625 0C3.76014 0 0 3.70482 0 8.25301V11.747C0 16.2952 3.76014 20 8.37625 20C10.5009 20 12.1058 19.3374 13.8025 18.6446C15.5603 17.9217 17.3639 17.1837 19.9165 17.1837C23.2792 17.1837 26 14.488 26 11.1898V7.69578C26 6.05422 25.251 4.63855 23.7837 3.47892ZM23.3557 12.0331C23.5544 12.2289 23.8754 12.244 24.0741 12.0482C24.4256 11.7319 24.716 11.3705 24.9759 10.994V11.1898C24.9759 13.9458 22.6984 16.1898 19.9012 16.1898C17.1499 16.1898 15.2393 16.9729 13.4051 17.7259C11.8154 18.3886 10.3022 19.006 8.37625 19.006C4.47854 19.006 1.26867 16.009 1.0241 12.2139C2.44562 14.7741 5.21223 16.506 8.37625 16.506C10.5009 16.506 12.1058 15.8434 13.8025 15.1506C15.5603 14.4277 17.3639 13.6898 19.9165 13.6898C20.0999 13.6898 20.2986 13.6747 20.4821 13.6596C20.7572 13.6295 20.9712 13.3886 20.9406 13.1175C20.9101 12.8464 20.6655 12.6355 20.3904 12.6657C20.2375 12.6807 20.0694 12.6807 19.9165 12.6807C17.1652 12.6807 15.2546 13.4639 13.4203 14.2169C11.8154 14.8946 10.3022 15.512 8.37625 15.512C4.31041 15.512 1.00882 12.259 1.00882 8.25301C1.00882 4.24699 4.31041 0.993976 8.37625 0.993976C10.1188 0.993976 14.5973 1.11446 18.5409 2.18374C22.8054 3.34337 24.9759 5.19578 24.9759 7.69578C24.9759 9.06627 24.3951 10.3916 23.371 11.3253C23.1723 11.5211 23.1723 11.8373 23.3557 12.0331Z" fill="#961914"/>
<path d="M22.943 12.3494C22.8207 12.0934 22.515 11.9879 22.2704 12.1084H22.2552C22.0106 12.2289 21.9036 12.5301 22.0259 12.7861C22.1176 12.9668 22.301 13.0572 22.4844 13.0572C22.5609 13.0572 22.6373 13.0421 22.7137 13.012C22.9583 12.8915 23.0653 12.6054 22.943 12.3494Z" fill="#961914"/>
<path d="M12.0447 2.13852H12.0141C11.739 2.12346 11.4944 2.31925 11.4638 2.60539C11.4486 2.87647 11.6473 3.11744 11.9224 3.14756H11.953C11.9682 3.14756 11.9835 3.14756 11.9988 3.14756C12.2587 3.14756 12.4879 2.95178 12.5032 2.68069C12.5338 2.40961 12.3198 2.16864 12.0447 2.13852Z" fill="#961914"/>
<path d="M23.6461 6.35543C23.1417 5.36145 22.0258 4.51808 20.3139 3.82531C18.9382 3.26808 17.425 2.90664 16.4009 2.71085C15.7895 2.59037 15.1475 2.48495 14.4903 2.39459C14.2151 2.36447 13.9553 2.56025 13.9247 2.83133C13.8789 3.10242 14.0776 3.35844 14.3527 3.38856C14.9947 3.47892 15.6061 3.58435 16.2022 3.68977C19.6872 4.36748 22.0717 5.497 22.7442 6.79218C22.8818 7.06326 22.9582 7.36447 22.9582 7.69579C22.9582 9.35242 21.5979 10.6928 19.9165 10.6928C18.2198 10.6928 16.5843 10.9639 14.8877 11.5211C14.154 11.7621 13.4509 12.0482 12.7631 12.3343C12.3045 12.5151 11.8459 12.7109 11.3721 12.8765C10.2104 13.3283 9.30862 13.509 8.37623 13.509C5.44148 13.509 3.04172 11.1596 3.04172 8.25302C3.04172 5.36145 5.4262 2.997 8.37623 2.997C8.95706 2.997 9.5379 3.01206 10.1034 3.02712C10.1952 3.02712 10.3022 3.02712 10.3939 3.04218C10.6843 3.05724 10.9136 2.84639 10.9288 2.56025C10.9441 2.28917 10.7301 2.0482 10.4397 2.03314C10.3327 2.03314 10.241 2.01808 10.134 2.01808C9.55318 2.01808 8.95706 2.00302 8.37623 2.00302C4.87593 2.00302 2.0329 4.80423 2.0329 8.25302C2.0329 11.7018 4.87593 14.503 8.37623 14.503C9.44618 14.503 10.4397 14.2922 11.739 13.8102C12.2128 13.6446 12.6866 13.4488 13.1452 13.253C13.8177 12.9819 14.5056 12.6958 15.1934 12.4699C16.783 11.9428 18.3116 11.6868 19.9012 11.6868C22.1328 11.6868 23.9518 9.89459 23.9518 7.69579C23.9671 7.1988 23.8601 6.76206 23.6461 6.35543Z" fill="#961914"/>
<path d="M8.86539 3.99101C7.44387 3.99101 6.29749 5.03017 6.29749 6.29523C6.29749 7.56029 7.44387 8.58439 8.86539 8.58439C10.2869 8.58439 11.4333 7.54523 11.4333 6.28017C11.4333 5.01511 10.2869 3.99101 8.86539 3.99101ZM8.86539 7.59041C8.00942 7.59041 7.3063 7.00306 7.3063 6.29523C7.3063 5.57234 8.00942 5.00005 8.86539 5.00005C9.72135 5.00005 10.4245 5.57234 10.4245 6.29523C10.4245 7.01812 9.72135 7.59041 8.86539 7.59041Z" fill="#961914"/>
</svg>
