<svg width="375" height="745" viewBox="0 0 375 745" fill="none" xmlns="http://www.w3.org/2000/svg">
<path d="M-112.461 622.443C-112.957 615.521 -108.712 596.285 -87.7699 574.717C-61.5928 547.756 -34.2218 557.042 -6.22133 555.243C21.7791 553.444 111.894 555.509 154.082 512.058C196.27 468.606 174.569 408.889 207.507 370.695C240.446 332.501 300.138 335.538 333.939 300.725C367.74 265.911 323.064 162.02 372.368 111.239C411.812 70.6151 444.177 66.3761 455.43 69.3347" stroke="#EAD1D0" stroke-width="4" stroke-linecap="round" stroke-dasharray="8 8"/>
<path d="M-54.569 681.032C-56.474 674.359 -56.2663 654.661 -40.1957 629.254C-20.1076 597.496 8.58643 600.968 35.622 593.462C62.6576 585.957 151.278 569.487 183.653 518.304C216.029 467.121 182.536 413.127 206.937 368.987C231.337 324.847 290.382 315.572 316.322 274.564C342.261 233.555 277.218 141.042 315.053 81.225C345.322 33.3717 376.129 22.582 387.749 23.1688" stroke="#EAD1D0" stroke-width="4" stroke-linecap="round" stroke-dasharray="8 8"/>
</svg>
